<svg width="1080" height="1080" viewBox="0 0 1080 1080" fill="none" xmlns="http://www.w3.org/2000/svg">
<path fill-rule="evenodd" clip-rule="evenodd" d="M606.267 273.798L534.155 148L328.449 492.969L555.771 238.185L606.267 273.798Z" fill="#29367D"/>
<path fill-rule="evenodd" clip-rule="evenodd" d="M675.541 394.458L646.838 342.721L564.449 277.696L300.629 540.277L276.355 579.256L583.585 339.532L675.541 394.458Z" fill="#29367D"/>
<path fill-rule="evenodd" clip-rule="evenodd" d="M757.58 533.367L724.271 479.859L595.638 390.383L258.466 611.503L242.52 637.549L612.47 454.876L757.58 533.367Z" fill="#29367D"/>
<path fill-rule="evenodd" clip-rule="evenodd" d="M817.108 634.891L785.924 580.142L628.234 515.472L225.328 663.771L213.988 687.336L645.952 590.419L817.108 634.891Z" fill="#29367D"/>
<path fill-rule="evenodd" clip-rule="evenodd" d="M844.573 679.54L660.66 651.546L201.234 707.18L183.516 736.238L678.024 715.154L883.02 749.881L844.573 679.54Z" fill="#29367D"/>
<path d="M217.002 889.853L146.485 729.859H143.827L73.8413 885.6C67.2857 900.484 61.6159 910.228 57.1864 915.012C52.5798 919.796 46.5556 922.808 40 923.694V929.01H105.025V923.694C94.7485 922.985 88.3701 921.745 85.8895 920.151C81.4601 917.67 78.9795 913.063 79.1567 908.102C79.5111 902.61 80.9285 897.294 83.2319 892.51L91.3821 873.552H160.305L170.759 897.826C173.416 904.204 174.834 907.748 175.011 908.634C175.542 910.406 175.897 912.177 175.897 913.949C176.074 916.607 174.834 919.087 172.708 920.505C169.695 922.631 164.38 923.694 156.761 923.694H152.863V929.01H247.477V923.694C242.339 923.517 237.555 921.745 233.657 918.556C229.228 914.658 223.735 905.09 217.002 889.853ZM96.3431 862.921L126.286 795.77L155.344 862.921H96.3431Z" fill="#E21F26"/>
<path d="M323.129 835.99C310.727 829.788 302.577 825.536 299.033 823.056C294.958 820.398 291.414 816.854 288.757 812.779C287.162 810.121 286.453 807.109 286.453 803.92C286.453 798.605 288.934 793.467 293.009 790.1C297.438 786.025 303.285 784.076 310.904 784.076C320.649 784.076 329.685 787.974 338.013 795.593C346.34 803.211 351.655 813.311 353.781 825.891H358.388L357.148 775.926H353.781C352.896 780.355 351.833 783.19 350.592 784.43C349.352 785.671 347.757 786.202 345.986 786.202C344.037 786.202 340.493 784.962 335.532 782.659C331.457 780.532 327.205 778.938 322.952 777.698C318.346 776.457 313.562 775.926 308.778 775.926C295.489 775.926 284.327 780.178 275.468 788.506C266.964 796.301 262.18 807.464 262.357 818.98C262.357 825.713 263.951 832.269 267.141 838.293C270.684 844.494 275.291 849.81 280.961 854.062C286.985 858.846 296.73 864.516 310.372 871.249C317.46 874.438 324.37 878.336 330.748 882.942C334.115 885.423 337.127 888.612 339.253 892.333C344.391 901.015 342.442 912 334.646 918.378C329.685 922.808 323.129 925.111 314.979 925.111C304.348 925.111 294.249 920.859 285.036 912.531C275.823 904.204 269.444 891.979 266.255 876.21H262.18V932.73H266.255C267.318 930.072 269.09 927.769 271.393 925.997C273.165 924.58 275.291 923.871 277.417 923.871C280.429 924.048 283.441 924.757 286.099 925.997C291.237 928.3 296.553 930.072 301.868 931.49C306.297 932.376 310.727 932.907 315.334 932.907C330.394 932.907 342.796 928.478 352.541 919.264C362.286 910.051 367.247 899.42 367.247 887.018C367.424 877.45 364.235 868.237 358.211 860.795C352.541 852.822 340.67 844.672 323.129 835.99Z" fill="#E21F26"/>
<path d="M687.238 819.69H691.491C693.262 808.705 697.16 800.2 703.716 794.176C708.323 789.924 715.587 787.798 725.686 787.798H736.494V903.496C736.494 911.115 736.14 915.721 735.254 917.493C734.368 919.797 732.773 921.568 730.647 922.809C727.458 924.58 723.737 925.289 720.194 925.112H715.233V929.187H793.9V925.112H788.939C785.396 925.289 781.852 924.58 778.84 922.986C776.714 921.923 774.942 920.151 773.879 918.025C772.993 916.076 772.639 911.292 772.639 903.673V787.975H783.801C790.888 787.975 795.672 788.683 798.507 789.924C803.291 792.05 807.366 795.416 810.378 799.669C813.213 803.744 815.871 810.477 818.174 819.867H822.072V779.293H687.238V819.69Z" fill="#E21F26"/>
<path d="M1026.18 918.556C1021.93 914.658 1016.43 905.09 1009.7 889.853L939.184 729.859H936.349L866.54 885.6C859.985 900.484 854.315 910.228 849.886 915.012C845.279 919.796 839.255 922.808 832.699 923.694V929.01H897.724V923.694C887.448 922.985 881.069 921.745 878.589 920.151C874.159 917.67 871.679 913.063 871.856 908.102C872.21 902.61 873.628 897.294 875.931 892.51L884.081 873.552H953.004L963.458 898.003C966.115 904.382 967.533 907.925 967.71 908.811C968.242 910.583 968.596 912.355 968.596 914.126C968.773 916.784 967.533 919.265 965.407 920.682C962.395 922.808 957.079 923.871 949.46 923.871H945.563V929.187H1040V923.871C1035.04 923.694 1030.25 921.745 1026.18 918.556ZM889.042 862.921L919.163 795.77L948.22 862.921H889.042Z" fill="#E21F26"/>
<path d="M571.717 922.809C569.591 921.746 567.819 919.974 566.756 917.848C566.047 915.899 565.515 911.115 565.515 903.496V804.63C565.515 797.188 565.87 792.581 566.756 790.81C567.641 788.683 569.236 786.734 571.185 785.671C574.551 783.9 578.095 783.191 581.816 783.368H586.777V779.293H525.65L484.899 878.159L442.73 779.293H381.426V783.368H386.21C389.753 783.191 393.12 783.9 396.309 785.494C398.435 786.557 400.207 788.329 401.27 790.455C402.156 792.404 402.51 797.011 402.51 804.63V899.598C402.51 906.331 402.51 910.052 402.333 910.938C401.801 913.772 400.561 916.607 398.789 919.088C397.018 921.214 394.891 922.809 392.234 923.695C389.222 924.935 386.21 925.466 383.02 925.289H381.426V929.364H432.808V925.289C425.898 925.289 420.937 924.049 417.748 921.745C414.558 919.619 412.432 916.43 411.546 912.709C411.015 908.28 410.838 903.673 411.015 899.066V793.467L469.484 929.187H472.142L529.725 792.404V903.496C529.725 911.115 529.371 915.721 528.485 917.493C527.599 919.619 526.004 921.568 524.055 922.809C520.866 924.58 517.145 925.289 513.425 925.112H508.464V929.187H586.954V925.112H581.993C578.449 925.112 574.906 924.403 571.717 922.809Z" fill="#E21F26"/>
<path d="M595.277 783.19H600.238C603.782 783.013 607.148 783.721 610.338 785.316C612.464 786.379 614.236 788.151 615.299 790.277C616.185 792.226 616.539 797.01 616.539 804.629V903.318C616.539 910.937 616.185 915.543 615.299 917.315C614.59 919.618 612.995 921.39 610.869 922.63C607.68 924.402 603.959 925.111 600.415 924.934H595.454V929.009H673.945V924.934H668.984C665.44 925.111 662.074 924.402 658.885 922.808C656.759 921.745 654.987 919.973 653.924 917.847C653.038 915.898 652.683 911.114 652.683 903.495V804.806C652.683 797.364 653.038 792.58 653.924 790.809C654.81 788.505 656.404 786.734 658.53 785.493C661.72 783.721 665.44 783.013 668.984 783.19H673.945V779.115H595.454V783.19H595.277Z" fill="#E21F26"/>
</svg>
